<svg width="105" height="127" viewBox="0 0 105 127" fill="none" xmlns="http://www.w3.org/2000/svg">
<path d="M5.2985 94.0443C5.43148 93.2812 5.53537 92.7332 5.61018 92.4004C5.69329 92.0594 5.78056 91.7144 5.87198 91.3653C5.90523 91.2517 5.94263 91.0975 5.98419 90.9026C6.03406 90.6997 6.07977 90.4886 6.12132 90.2694C5.91354 90.3425 5.68082 90.4764 5.42317 90.6713C5.17383 90.8661 4.91202 91.1096 4.63775 91.4019C4.37178 91.686 4.09751 92.0107 3.81492 92.376C3.54064 92.7332 3.27468 93.1148 3.01703 93.5207L2.58068 94.2391C2.38121 94.6044 2.1942 94.9698 2.01966 95.3351C1.84512 95.6923 1.69552 96.0535 1.57085 96.4188C1.42956 96.8085 1.3132 97.1982 1.22177 97.5878C1.13866 97.9775 1.08463 98.3428 1.0597 98.6838C0.660754 98.5701 0.382323 98.4565 0.224407 98.3428C0.0748024 98.2292 0 98.0871 0 97.9166C0 97.7867 0.0374012 97.6041 0.112203 97.3686C0.187006 97.1332 0.295054 96.8572 0.436347 96.5406C0.585952 96.2159 0.76049 95.8587 0.959963 95.469C1.16775 95.0794 1.47527 94.5476 1.88253 93.8738C2.28978 93.1919 2.67626 92.6115 3.04196 92.1325C3.41597 91.6535 3.78998 91.2152 4.164 90.8174C4.53801 90.4115 4.91202 90.0583 5.28603 89.758C5.66004 89.4495 6.01743 89.2059 6.3582 89.0273C6.36651 88.9705 6.37067 88.9218 6.37067 88.8812C6.37898 88.8406 6.38313 88.8122 6.38313 88.796C6.49949 88.796 6.65325 88.8244 6.84441 88.8812C7.04389 88.938 7.23505 89.0071 7.4179 89.0882C7.60906 89.1694 7.77529 89.2547 7.91658 89.344C8.06618 89.4251 8.1493 89.4941 8.16592 89.551C7.89165 90.0218 7.62153 90.7281 7.35556 91.6698C7.0896 92.6033 6.86935 93.7236 6.69481 95.0306C6.65325 95.3554 6.61585 95.7247 6.58261 96.1388C6.55767 96.5528 6.54521 97.0155 6.54521 97.5269C6.54521 97.7055 6.54521 97.8882 6.54521 98.0749C6.54521 98.2616 6.55352 98.4565 6.57014 98.6594C6.55352 98.6675 6.53689 98.6716 6.52027 98.6716C6.50365 98.6716 6.4704 98.6716 6.42053 98.6716C6.30417 98.6716 6.16704 98.6513 6.00912 98.6107C5.85952 98.5782 5.70991 98.5336 5.56031 98.4768C5.41901 98.4281 5.29434 98.3712 5.1863 98.3063C5.08656 98.2413 5.02422 98.1845 4.99929 98.1358C4.99098 98.0303 4.98682 97.9247 4.98682 97.8192C4.98682 97.7218 4.98682 97.6162 4.98682 97.5026C4.98682 96.9993 5.00345 96.4878 5.03669 95.9683C5.07825 95.4487 5.16552 94.8074 5.2985 94.0443Z" fill="#4981C2"/>
<path d="M12.9109 92.717C12.8777 93.2203 12.7862 93.6546 12.6366 94.0199C12.487 94.3771 12.2709 94.6937 11.9883 94.9698C11.7141 95.2377 11.3775 95.4812 10.9785 95.7004C10.5796 95.9196 10.1141 96.1306 9.5822 96.3336C9.5822 96.3823 9.57804 96.4351 9.56973 96.4919C9.56973 96.5406 9.56973 96.5934 9.56973 96.6502C9.56973 96.7557 9.57804 96.8653 9.59466 96.979C9.61129 97.0926 9.64038 97.1982 9.68194 97.2956C9.72349 97.393 9.78167 97.4742 9.85647 97.5391C9.93128 97.596 10.0269 97.6244 10.1432 97.6244C10.3676 97.6244 10.5879 97.5757 10.804 97.4782C11.0201 97.3808 11.2237 97.2631 11.4149 97.1251C11.6143 96.979 11.7972 96.8247 11.9634 96.6624C12.1379 96.4919 12.2917 96.3377 12.4247 96.1996C12.5078 96.2727 12.5784 96.3417 12.6366 96.4067C12.2626 96.8937 11.8512 97.2996 11.4024 97.6244C10.9619 97.941 10.5422 98.1439 10.1432 98.2332C9.56973 98.1683 9.12092 97.9653 8.79677 97.6244C8.48094 97.2753 8.32303 96.8572 8.32303 96.3701C8.32303 96.0373 8.36874 95.7004 8.46016 95.3594C8.5599 95.0104 8.69288 94.6775 8.85911 94.3609C9.03365 94.0362 9.23312 93.7318 9.45753 93.4476C9.69025 93.1635 9.93543 92.9159 10.1931 92.7048C10.459 92.4938 10.7292 92.3273 11.0034 92.2056C11.286 92.0838 11.5645 92.0229 11.8387 92.0229C12.2211 92.0716 12.5784 92.303 12.9109 92.717ZM12.0507 93.1188C11.8263 93.1513 11.5936 93.2406 11.3525 93.3867C11.1115 93.5329 10.8829 93.7277 10.6668 93.9712C10.459 94.2148 10.2679 94.4989 10.0933 94.8236C9.91881 95.1484 9.78167 95.4974 9.68194 95.8709C10.3468 95.5461 10.8996 95.1484 11.3401 94.6775C11.7806 94.1985 12.0174 93.679 12.0507 93.1188Z" fill="#4981C2"/>
<path d="M15.595 94.3487C15.4537 94.5354 15.3207 94.7384 15.1961 94.9576C15.0714 95.1768 14.9634 95.4 14.8719 95.6273C14.7805 95.8465 14.7099 96.0616 14.66 96.2727C14.6101 96.4757 14.5852 96.6583 14.5852 96.8207C14.5852 97.0155 14.6184 97.2022 14.6849 97.3808C14.7514 97.5594 14.8262 97.6609 14.9093 97.6853C15.2833 97.6041 15.6241 97.4539 15.9316 97.2347C16.2475 97.0074 16.5176 96.7273 16.742 96.3945C16.9747 96.0616 17.1534 95.6842 17.2781 95.262C17.4111 94.8399 17.4775 94.3893 17.4775 93.9104C17.4775 93.6993 17.4651 93.5329 17.4401 93.4111C17.4152 93.2893 17.3737 93.1838 17.3155 93.0945C16.9498 93.2 16.6215 93.3705 16.3306 93.6059C16.048 93.8414 15.8028 94.089 15.595 94.3487ZM18.3502 93.5085C18.3752 93.6465 18.3876 93.8089 18.3876 93.9956C18.3876 94.507 18.3004 94.9941 18.1258 95.4568C17.9596 95.9115 17.7227 96.3255 17.4152 96.6989C17.116 97.0723 16.7545 97.3889 16.3306 97.6487C15.915 97.9004 15.4579 98.079 14.9592 98.1845C14.4855 98.1358 14.1073 97.9329 13.8247 97.5757C13.5421 97.2185 13.4008 96.7639 13.4008 96.2118C13.4008 95.8871 13.4507 95.5502 13.5504 95.2011C13.6502 94.852 13.7915 94.5152 13.9743 94.1904C14.1572 93.8576 14.3732 93.545 14.6226 93.2528C14.8719 92.9605 15.1421 92.7089 15.4329 92.4978C15.8901 92.165 16.3181 91.9986 16.7171 91.9986C16.8168 92.0473 16.9124 92.1203 17.0038 92.2177L16.8043 91.9255C16.7046 91.7469 16.5841 91.5845 16.4428 91.4384C16.3098 91.2842 16.1768 91.1421 16.0438 91.0122C15.9109 90.8742 15.782 90.7403 15.6574 90.6104C15.5327 90.4805 15.4288 90.3384 15.3457 90.1842C15.2293 89.9975 15.1545 89.7904 15.1213 89.5631C15.0963 89.3277 15.1005 89.0964 15.1337 88.869C15.1753 88.6336 15.2459 88.4104 15.3457 88.1993C15.4537 87.9882 15.5909 87.8096 15.7571 87.6635C15.8485 87.6392 15.9773 87.6838 16.1436 87.7975C16.3181 87.9111 16.6215 87.9558 17.0537 87.9314C17.2116 87.8827 17.3861 87.8299 17.5773 87.7731C17.7684 87.7163 17.9679 87.6716 18.1757 87.6392C18.3918 87.6067 18.612 87.6229 18.8365 87.6879C18.9694 87.7285 19.1024 87.7893 19.2354 87.8705C19.3684 87.9517 19.4847 88.0451 19.5845 88.1506C19.6925 88.248 19.7756 88.3576 19.8338 88.4794C19.9003 88.593 19.9336 88.7107 19.9336 88.8325C19.9003 88.9056 19.8504 88.9908 19.784 89.0882C19.7175 89.1775 19.6385 89.2668 19.5471 89.3561C19.4557 89.4454 19.3476 89.5185 19.2229 89.5753C19.0983 89.624 18.9528 89.6443 18.7866 89.6362C18.8032 89.5875 18.7866 89.5185 18.7367 89.4292C18.6952 89.3318 18.637 89.2344 18.5622 89.1369C18.4874 89.0314 18.396 88.938 18.2879 88.8569C18.1882 88.7676 18.076 88.7067 17.9513 88.6742C17.8516 88.6417 17.756 88.6336 17.6646 88.6499C17.5814 88.658 17.4983 88.6742 17.4152 88.6986C17.3321 88.7148 17.2407 88.731 17.1409 88.7473C17.0994 88.7554 17.0578 88.7595 17.0163 88.7595L17.0287 88.7838C17.0121 88.7838 16.9996 88.7879 16.9913 88.796C16.2017 88.7554 15.9607 89.0071 16.2682 89.551C16.5758 90.0868 16.9332 90.6956 17.3404 91.3775C17.382 91.4425 17.4069 91.4831 17.4152 91.4993C17.5981 91.8078 17.702 91.9823 17.7269 92.0229C17.7601 92.0797 17.7934 92.1366 17.8266 92.1934C17.8682 92.2421 17.9139 92.3111 17.9638 92.4004C18.1882 92.7819 18.317 93.1513 18.3502 93.5085Z" fill="#4981C2"/>
<path d="M23.4543 92.717C23.4211 93.2203 23.3297 93.6546 23.1801 94.0199C23.0304 94.3771 22.8144 94.6937 22.5318 94.9698C22.2575 95.2377 21.9209 95.4812 21.5219 95.7004C21.123 95.9196 20.6576 96.1306 20.1256 96.3336C20.1256 96.3823 20.1215 96.4351 20.1132 96.4919C20.1132 96.5406 20.1132 96.5934 20.1132 96.6502C20.1132 96.7557 20.1215 96.8653 20.1381 96.979C20.1547 97.0926 20.1838 97.1982 20.2254 97.2956C20.2669 97.393 20.3251 97.4742 20.3999 97.5391C20.4747 97.596 20.5703 97.6244 20.6866 97.6244C20.9111 97.6244 21.1313 97.5757 21.3474 97.4782C21.5635 97.3808 21.7671 97.2631 21.9583 97.1251C22.1578 96.979 22.3406 96.8247 22.5068 96.6624C22.6814 96.4919 22.8351 96.3377 22.9681 96.1996C23.0512 96.2727 23.1219 96.3417 23.1801 96.4067C22.806 96.8937 22.3946 97.2996 21.9458 97.6244C21.5053 97.941 21.0856 98.1439 20.6866 98.2332C20.1132 98.1683 19.6643 97.9653 19.3402 97.6244C19.0244 97.2753 18.8665 96.8572 18.8665 96.3701C18.8665 96.0373 18.9122 95.7004 19.0036 95.3594C19.1033 95.0104 19.2363 94.6775 19.4025 94.3609C19.5771 94.0362 19.7766 93.7318 20.001 93.4476C20.2337 93.1635 20.4789 92.9159 20.7365 92.7048C21.0025 92.4938 21.2726 92.3273 21.5469 92.2056C21.8295 92.0838 22.1079 92.0229 22.3822 92.0229C22.7645 92.0716 23.1219 92.303 23.4543 92.717ZM22.5941 93.1188C22.3697 93.1513 22.137 93.2406 21.8959 93.3867C21.6549 93.5329 21.4264 93.7277 21.2103 93.9712C21.0025 94.2148 20.8113 94.4989 20.6368 94.8236C20.4622 95.1484 20.3251 95.4974 20.2254 95.8709C20.8903 95.5461 21.443 95.1484 21.8835 94.6775C22.324 94.1985 22.5609 93.679 22.5941 93.1188Z" fill="#4981C2"/>
<path d="M21.5132 101.387C21.5132 101.338 21.5298 101.294 21.563 101.253C21.5963 101.213 21.6337 101.172 21.6752 101.131C21.775 101.221 21.8622 101.29 21.937 101.338C22.0035 101.387 22.07 101.428 22.1365 101.46C22.1947 101.493 22.257 101.513 22.3235 101.521C22.39 101.529 22.469 101.533 22.5604 101.533C22.9926 101.533 23.404 101.42 23.7946 101.192C24.1853 100.973 24.551 100.652 24.8917 100.23C25.2408 99.8081 25.5567 99.2926 25.8392 98.6838C26.1218 98.0749 26.3712 97.3849 26.5873 96.6137C26.4875 96.7111 26.3629 96.8207 26.2133 96.9424C26.072 97.0561 25.9224 97.1657 25.7644 97.2712C25.6065 97.3768 25.4486 97.4742 25.2907 97.5635C25.1411 97.6528 25.0123 97.7177 24.9042 97.7583C24.7629 97.734 24.6299 97.6771 24.5053 97.5878C24.3889 97.4904 24.285 97.3727 24.1936 97.2347C24.1022 97.0967 24.0315 96.9424 23.9816 96.772C23.9318 96.5934 23.9068 96.4067 23.9068 96.2118C23.9068 95.8952 23.965 95.5705 24.0814 95.2377C24.2061 94.9048 24.3681 94.5801 24.5676 94.2635C24.7671 93.9388 24.9998 93.6343 25.2658 93.3502C25.54 93.0661 25.8268 92.8185 26.126 92.6074C26.4335 92.3963 26.741 92.2299 27.0485 92.1081C27.3644 91.9783 27.6719 91.9133 27.9711 91.9133C28.262 91.9133 28.4781 91.9742 28.6194 92.096C28.769 92.2096 28.877 92.4085 28.9435 92.6926C28.8521 92.6439 28.7358 92.6196 28.5945 92.6196C28.395 92.6196 28.1623 92.6967 27.8963 92.851C27.6387 93.0052 27.3727 93.2081 27.0984 93.4598C26.8324 93.7033 26.5665 93.9875 26.3005 94.3122C26.0346 94.6288 25.7977 94.9535 25.5899 95.2864C25.3904 95.6192 25.2242 95.9439 25.0912 96.2605C24.9665 96.5771 24.9042 96.8613 24.9042 97.1129C24.9042 97.1698 24.9084 97.2063 24.9167 97.2225C24.925 97.2306 24.9375 97.2347 24.9541 97.2347C25.0289 97.2347 25.1286 97.1941 25.2533 97.1129C25.3863 97.0317 25.5317 96.9303 25.6896 96.8085C25.8559 96.6786 26.0262 96.5325 26.2008 96.3701C26.3753 96.1996 26.5415 96.0292 26.6995 95.8587C27.0569 95.469 27.381 95.0347 27.6719 94.5557C27.9711 94.0687 28.208 93.5978 28.3825 93.1432C28.6069 93.1594 28.8064 93.196 28.9809 93.2528C29.1555 93.3096 29.276 93.3705 29.3425 93.4354C29.0599 94.0687 28.8313 94.6004 28.6568 95.0306C28.4906 95.4609 28.3451 95.8425 28.2204 96.1753C27.996 96.7598 27.7841 97.2915 27.5846 97.7705C27.3935 98.2576 27.194 98.7041 26.9862 99.11C26.7867 99.524 26.5665 99.9055 26.3255 100.255C26.0927 100.612 25.8268 100.953 25.5276 101.277C25.3863 101.432 25.2242 101.566 25.0413 101.679C24.8668 101.801 24.684 101.903 24.4928 101.984C24.3099 102.065 24.1271 102.126 23.9442 102.166C23.7697 102.207 23.6076 102.227 23.458 102.227C23.2586 102.227 23.0549 102.203 22.8471 102.154C22.6394 102.114 22.4482 102.053 22.2737 101.972C22.0908 101.899 21.9329 101.809 21.7999 101.704C21.6669 101.606 21.5713 101.501 21.5132 101.387Z" fill="#4981C2"/>
<path d="M33.0352 97.4904C32.8772 97.3605 32.7692 97.1982 32.711 97.0033C32.6612 96.8085 32.6362 96.6421 32.6362 96.5041C32.6362 96.3336 32.657 96.1875 32.6986 96.0657C32.6653 96.0657 32.5905 96.1306 32.4741 96.2605C32.3578 96.3904 32.229 96.5447 32.0877 96.7233C31.9547 96.9019 31.8217 97.0764 31.6887 97.2469C31.5557 97.4174 31.456 97.5432 31.3895 97.6244C31.2815 97.738 31.1776 97.8273 31.0778 97.8923C30.9864 97.9572 30.9116 97.9937 30.8534 98.0019C30.7204 97.9937 30.5792 97.9653 30.4296 97.9166C30.2883 97.876 30.1511 97.8151 30.0181 97.734C29.8935 97.6528 29.7813 97.5554 29.6815 97.4417C29.5901 97.3281 29.5278 97.1982 29.4945 97.052C29.4945 96.8247 29.4987 96.638 29.507 96.4919C29.5236 96.3458 29.5527 96.1875 29.5943 96.017C29.6691 95.7085 29.7771 95.3594 29.9184 94.9698C30.068 94.5801 30.2384 94.1985 30.4296 93.8251C30.6207 93.4436 30.8327 93.0904 31.0654 92.7657C31.3064 92.4329 31.5599 92.1731 31.8259 91.9864C31.9007 91.9864 31.9879 91.9945 32.0877 92.0107C32.1874 92.0188 32.2871 92.0391 32.3869 92.0716C32.4949 92.1041 32.5947 92.1447 32.6861 92.1934C32.7858 92.234 32.8689 92.2908 32.9354 92.3639C32.8606 92.445 32.6695 92.717 32.3619 93.1797C32.0627 93.6425 31.7261 94.3081 31.3521 95.1768C31.3106 95.2661 31.2607 95.396 31.2025 95.5664C31.1443 95.7369 31.0861 95.9155 31.028 96.1022C30.9698 96.2889 30.9199 96.4716 30.8784 96.6502C30.8451 96.8288 30.8285 96.9709 30.8285 97.0764C30.8285 97.1413 30.8368 97.19 30.8534 97.2225C30.8784 97.255 30.8991 97.2793 30.9158 97.2956C31.0404 97.2469 31.1984 97.1129 31.3895 96.8937C31.5807 96.6746 31.8466 96.3377 32.1874 95.883C32.2705 95.7694 32.3661 95.6395 32.4741 95.4934C32.5905 95.3473 32.7069 95.193 32.8232 95.0306C32.9396 94.8602 33.0476 94.6856 33.1474 94.507C33.2554 94.3284 33.3427 94.1498 33.4092 93.9712C33.4424 93.8738 33.484 93.7602 33.5338 93.6303C33.592 93.4923 33.6585 93.3502 33.7333 93.2041C33.8164 93.058 33.9079 92.9118 34.0076 92.7657C34.1156 92.6115 34.2403 92.4694 34.3816 92.3395C34.4897 92.3395 34.606 92.3517 34.7307 92.376C34.8554 92.4004 34.9717 92.4329 35.0798 92.4735C35.1961 92.5059 35.2959 92.5465 35.379 92.5952C35.4621 92.6358 35.5244 92.6805 35.566 92.7292C35.4164 93.0864 35.2501 93.4395 35.0673 93.7886C34.8844 94.1377 34.7141 94.4827 34.5561 94.8236C34.3982 95.1565 34.2652 95.4893 34.1572 95.8222C34.0492 96.155 33.9951 96.4797 33.9951 96.7963C33.9951 96.9668 34.0076 97.117 34.0325 97.2469C34.0658 97.3686 34.099 97.4742 34.1323 97.5635C34.1655 97.6447 34.1946 97.7137 34.2195 97.7705C34.2528 97.8273 34.2694 97.876 34.2694 97.9166C34.2694 97.9247 34.2611 97.9369 34.2445 97.9531C34.2362 97.9613 34.2278 97.9653 34.2195 97.9653C34.1614 97.9653 34.0866 97.9531 33.9951 97.9288C33.9037 97.9044 33.7998 97.8679 33.6835 97.8192C33.5754 97.7786 33.4632 97.7299 33.3468 97.6731C33.2388 97.6162 33.1349 97.5554 33.0352 97.4904Z" fill="#4981C2"/>
<path d="M40.592 94.5679C40.7166 94.3325 40.8122 94.1498 40.8787 94.0199C41.3358 93.0458 41.6849 92.5587 41.9259 92.5587C42.0922 92.5587 42.2459 92.6033 42.3872 92.6926C42.5368 92.7738 42.6407 92.8956 42.6989 93.058C42.6241 93.3015 42.4994 93.5938 42.3249 93.9347C42.1586 94.2757 41.9883 94.6369 41.8137 95.0185C41.6392 95.3919 41.4813 95.7613 41.34 96.1266C41.207 96.4919 41.1405 96.8207 41.1405 97.1129C41.1405 97.2834 41.1654 97.3971 41.2153 97.4539C41.2652 97.5026 41.3358 97.5269 41.4272 97.5269C41.527 97.5269 41.6184 97.5107 41.7015 97.4782C41.7929 97.4376 41.8594 97.4174 41.901 97.4174C41.9509 97.4498 41.98 97.4904 41.9883 97.5391C41.9966 97.5878 42.0007 97.6325 42.0007 97.6731C41.8345 97.803 41.6641 97.9085 41.4896 97.9897C41.315 98.079 41.1197 98.1236 40.9036 98.1236C40.7042 98.1236 40.5379 98.0912 40.4049 98.0262C40.2803 97.9613 40.1764 97.872 40.0933 97.7583C40.0102 97.6447 39.952 97.5148 39.9187 97.3686C39.8855 97.2225 39.8689 97.0642 39.8689 96.8937C39.8689 96.6177 39.9063 96.3417 39.9811 96.0657C39.9977 96.0008 40.0185 95.9358 40.0434 95.8709C39.7525 96.0901 39.4076 96.2484 39.0086 96.3458C38.8424 96.3295 38.6679 96.2889 38.485 96.224C38.3022 96.1509 38.1318 96.0413 37.9739 95.8952C37.816 95.7653 37.6705 95.5949 37.5375 95.3838C37.3796 95.7004 37.2258 96.0332 37.0762 96.3823C36.802 97.2996 36.5942 97.8436 36.4529 98.014C36.3199 98.1926 36.2036 98.3103 36.1038 98.3672C35.9293 98.2698 35.8004 98.1317 35.7173 97.9531C35.6342 97.7827 35.5719 97.6041 35.5303 97.4174C35.5303 97.2631 35.5511 97.0683 35.5927 96.8329C35.6425 96.5974 35.7049 96.3377 35.7797 96.0535C35.8628 95.7613 35.9625 95.4568 36.0789 95.1402C36.1952 94.8236 36.3241 94.507 36.4654 94.1904C36.7812 93.476 37.0679 92.9159 37.3256 92.51C37.5915 92.1041 37.7578 91.8849 37.8243 91.8524C38.0404 91.9174 38.244 92.0635 38.4352 92.2908C38.6263 92.51 38.7676 92.7535 38.859 93.0214C38.7676 93.2406 38.5307 93.6628 38.1484 94.2878C38.1484 94.296 38.1443 94.3041 38.1359 94.3122C38.2523 94.7749 38.4144 95.1037 38.6222 95.2985C38.8383 95.5096 39.0751 95.6314 39.3328 95.6639C39.6486 95.5908 39.9063 95.4487 40.1057 95.2377C40.3135 95.0185 40.4756 94.7952 40.592 94.5679Z" fill="#4981C2"/>
<path d="M44.7024 98.1845C44.2286 98.1358 43.8505 97.9329 43.5679 97.5757C43.2853 97.2185 43.144 96.7639 43.144 96.2118C43.144 95.8871 43.1939 95.5502 43.2936 95.2011C43.3933 94.852 43.5346 94.5152 43.7175 94.1904C43.9003 93.8576 44.1164 93.545 44.3658 93.2528C44.6151 92.9605 44.8852 92.7089 45.1761 92.4978C45.6333 92.165 46.0613 91.9986 46.4602 91.9986C46.7262 92.1366 46.988 92.4248 47.2457 92.8631C47.2872 92.8631 47.3246 92.8631 47.3579 92.8631C47.3911 92.855 47.4285 92.851 47.4701 92.851C47.9106 92.851 48.1308 93.2325 48.1308 93.9956C48.1308 94.507 48.0436 94.9941 47.869 95.4568C47.7028 95.9115 47.4659 96.3255 47.1584 96.6989C46.8592 97.0723 46.4976 97.3889 46.0738 97.6487C45.6582 97.9004 45.2011 98.079 44.7024 98.1845ZM45.3382 94.3487C45.1969 94.5354 45.0639 94.7384 44.9393 94.9576C44.8146 95.1768 44.7065 95.4 44.6151 95.6273C44.5237 95.8465 44.453 96.0616 44.4032 96.2727C44.3533 96.4757 44.3284 96.6583 44.3284 96.8207C44.3284 97.0155 44.3616 97.2022 44.4281 97.3808C44.4946 97.5594 44.5694 97.6609 44.6525 97.6853C45.0265 97.6041 45.3673 97.4539 45.6748 97.2347C45.9906 97.0074 46.2608 96.7273 46.4852 96.3945C46.7179 96.0616 46.8966 95.6842 47.0213 95.262C47.1542 94.8399 47.2207 94.3893 47.2207 93.9104C47.2207 93.6993 47.2083 93.5329 47.1833 93.4111C47.1584 93.2893 47.1168 93.1838 47.0587 93.0945C46.693 93.2 46.3647 93.3705 46.0738 93.6059C45.7912 93.8414 45.546 94.089 45.3382 94.3487Z" fill="#4981C2"/>
<path d="M53.1975 92.717C53.1643 93.2203 53.0728 93.6546 52.9232 94.0199C52.7736 94.3771 52.5575 94.6937 52.275 94.9698C52.0007 95.2377 51.6641 95.4812 51.2651 95.7004C50.8662 95.9196 50.4007 96.1306 49.8688 96.3336C49.8688 96.3823 49.8647 96.4351 49.8563 96.4919C49.8563 96.5406 49.8563 96.5934 49.8563 96.6502C49.8563 96.7557 49.8647 96.8653 49.8813 96.979C49.8979 97.0926 49.927 97.1982 49.9685 97.2956C50.0101 97.393 50.0683 97.4742 50.1431 97.5391C50.2179 97.596 50.3135 97.6244 50.4298 97.6244C50.6542 97.6244 50.8745 97.5757 51.0906 97.4782C51.3067 97.3808 51.5103 97.2631 51.7015 97.1251C51.9009 96.979 52.0838 96.8247 52.25 96.6624C52.4246 96.4919 52.5783 96.3377 52.7113 96.1996C52.7944 96.2727 52.8651 96.3417 52.9232 96.4067C52.5492 96.8937 52.1378 97.2996 51.689 97.6244C51.2485 97.941 50.8288 98.1439 50.4298 98.2332C49.8563 98.1683 49.4075 97.9653 49.0834 97.6244C48.7676 97.2753 48.6096 96.8572 48.6096 96.3701C48.6096 96.0373 48.6553 95.7004 48.7468 95.3594C48.8465 95.0104 48.9795 94.6775 49.1457 94.3609C49.3203 94.0362 49.5197 93.7318 49.7441 93.4476C49.9769 93.1635 50.222 92.9159 50.4797 92.7048C50.7457 92.4938 51.0158 92.3273 51.29 92.2056C51.5726 92.0838 51.8511 92.0229 52.1253 92.0229C52.5077 92.0716 52.8651 92.303 53.1975 92.717ZM52.3373 93.1188C52.1129 93.1513 51.8802 93.2406 51.6391 93.3867C51.3981 93.5329 51.1695 93.7277 50.9534 93.9712C50.7457 94.2148 50.5545 94.4989 50.38 94.8236C50.2054 95.1484 50.0683 95.4974 49.9685 95.8709C50.6335 95.5461 51.1862 95.1484 51.6267 94.6775C52.0672 94.1985 52.304 93.679 52.3373 93.1188Z" fill="#4981C2"/>
<path d="M4.25404 118.229C3.30654 118.132 2.55021 117.726 1.98503 117.012C1.41986 116.297 1.13727 115.388 1.13727 114.284C1.13727 113.635 1.23701 112.961 1.43648 112.263C1.63595 111.564 1.91854 110.891 2.28424 110.241C2.64994 109.575 3.08213 108.95 3.58082 108.366C4.0795 107.781 4.61974 107.278 5.20153 106.856C6.11578 106.19 6.97186 105.857 7.76975 105.857C8.30167 106.133 8.82529 106.71 9.3406 107.587C9.42371 107.587 9.49851 107.587 9.565 107.587C9.63149 107.57 9.7063 107.562 9.78941 107.562C10.6704 107.562 11.1109 108.325 11.1109 109.852C11.1109 110.874 10.9364 111.849 10.5873 112.774C10.2548 113.683 9.7811 114.511 9.16606 115.258C8.56764 116.005 7.84455 116.638 6.99679 117.158C6.16565 117.661 5.2514 118.018 4.25404 118.229ZM5.52568 110.558C5.24309 110.931 4.97713 111.337 4.72778 111.775C4.47844 112.214 4.26235 112.66 4.0795 113.115C3.89665 113.553 3.75535 113.984 3.65562 114.406C3.55588 114.812 3.50601 115.177 3.50601 115.502C3.50601 115.891 3.5725 116.265 3.70549 116.622C3.83847 116.979 3.98807 117.182 4.1543 117.231C4.90232 117.068 5.58386 116.768 6.1989 116.33C6.83056 115.875 7.3708 115.315 7.81961 114.649C8.28505 113.984 8.64244 113.229 8.89178 112.384C9.15774 111.54 9.29073 110.639 9.29073 109.681C9.29073 109.259 9.26579 108.926 9.21593 108.683C9.16606 108.439 9.08294 108.228 8.96658 108.049C8.23518 108.26 7.57858 108.601 6.99679 109.072C6.43162 109.543 5.94125 110.038 5.52568 110.558Z" fill="#4981C2"/>
<path d="M18.0029 108.853C17.953 108.723 17.9364 108.642 17.953 108.609C17.8699 108.528 17.7203 108.455 17.5042 108.39C17.2881 108.309 17.0471 108.252 16.7811 108.22C16.5151 108.171 16.2658 108.147 16.0331 108.147C15.8003 108.13 15.6341 108.13 15.5344 108.147C15.3682 108.179 15.2102 108.268 15.0606 108.415C14.911 108.544 14.778 108.699 14.6617 108.877C14.5453 109.056 14.4456 109.226 14.3625 109.389C14.296 109.551 14.2627 109.665 14.2627 109.73C13.8306 109.681 13.4399 109.559 13.0908 109.364C12.7418 109.17 12.4675 108.804 12.268 108.268C12.534 107.538 12.8083 106.986 13.0908 106.612C13.3734 106.239 13.7641 105.963 14.2627 105.784C15.1105 105.93 15.9167 106.15 16.6814 106.442C17.4626 106.718 18.1608 107.051 18.7758 107.44C18.9919 107.262 19.1997 107.091 19.3992 106.929C19.5986 106.75 19.848 106.596 20.1472 106.466C20.5794 106.58 20.9451 106.921 21.2443 107.489C21.1446 107.781 21.0033 108.033 20.8204 108.244C20.6376 108.439 20.4298 108.634 20.1971 108.829C19.981 109.007 19.7566 109.186 19.5238 109.364C19.4241 109.446 19.3327 109.527 19.2496 109.608C19.2163 109.754 19.1748 109.9 19.1249 110.046C18.9919 110.468 18.8008 110.891 18.5514 111.313C18.3021 111.735 17.9946 112.149 17.6288 112.555C17.2798 112.944 16.8891 113.294 16.4569 113.602L15.9333 113.967C16.0497 114.065 16.166 114.154 16.2824 114.235C16.698 114.641 17.0387 115.128 17.3047 115.697C17.5707 116.265 17.7452 116.89 17.8283 117.572C17.8616 118.189 17.7286 118.871 17.4294 119.618C17.1468 120.381 16.7562 121.103 16.2575 121.785C15.7588 122.483 15.2102 123.141 14.6118 123.758C13.8472 124.537 13.0576 125.13 12.2431 125.536C11.4286 125.958 10.6141 126.169 9.79954 126.169C9.38397 126.169 8.97671 126.12 8.57777 126.023C8.1622 125.941 7.77988 125.82 7.4308 125.657C7.0651 125.511 6.74927 125.333 6.4833 125.122C6.20072 124.927 6.00124 124.716 5.88488 124.488C5.88488 124.294 6.00124 124.123 6.23396 123.977C6.43343 124.156 6.59966 124.294 6.73264 124.391C6.86562 124.488 6.99861 124.57 7.13159 124.634C7.24795 124.699 7.38093 124.74 7.53053 124.756C7.66352 124.772 7.82143 124.781 8.00428 124.781C8.95178 124.781 9.87434 124.505 10.772 123.953C11.6862 123.417 12.5506 122.646 13.3651 121.639C13.897 120.973 14.3957 120.218 14.8612 119.374H14.8113C15.0274 118.822 15.1936 118.254 15.31 117.669C15.5593 116.24 15.418 115.331 14.8861 114.942L14.7116 114.771C14.6451 114.771 14.5786 114.779 14.5121 114.795L14.537 114.698C14.4872 114.714 14.4456 114.73 14.4123 114.747C14.03 114.86 13.7391 114.917 13.5397 114.917C13.2238 114.917 12.9495 114.771 12.7168 114.479C12.5007 114.17 12.3927 113.708 12.3927 113.091C13.0244 113.091 13.6311 112.961 14.2129 112.701C14.8113 112.425 15.4014 112.1 15.9832 111.727C16.5816 111.353 17.0803 110.858 17.4792 110.241C17.7286 109.852 17.9031 109.389 18.0029 108.853Z" fill="#4981C2"/>
<path d="M30.3998 107.294C30.3333 108.301 30.1504 109.17 29.8512 109.9C29.552 110.615 29.1198 111.248 28.5547 111.8C28.0061 112.336 27.3329 112.823 26.535 113.261C25.7371 113.699 24.8062 114.122 23.7424 114.528C23.7424 114.625 23.7341 114.73 23.7174 114.844C23.7174 114.942 23.7174 115.047 23.7174 115.161C23.7174 115.372 23.7341 115.591 23.7673 115.818C23.8006 116.046 23.8587 116.257 23.9419 116.451C24.025 116.646 24.1413 116.809 24.2909 116.939C24.4405 117.052 24.6317 117.109 24.8644 117.109C25.3132 117.109 25.7537 117.012 26.1859 116.817C26.6181 116.622 27.0254 116.387 27.4077 116.111C27.8066 115.818 28.1723 115.51 28.5048 115.185C28.8539 114.844 29.1614 114.536 29.4274 114.26C29.5936 114.406 29.7349 114.544 29.8512 114.674C29.1032 115.648 28.2804 116.46 27.3828 117.109C26.5018 117.742 25.6623 118.148 24.8644 118.327C23.7174 118.197 22.8198 117.791 22.1715 117.109C21.5399 116.411 21.224 115.575 21.224 114.601C21.224 113.935 21.3155 113.261 21.4983 112.579C21.6978 111.881 21.9637 111.215 22.2962 110.582C22.6453 109.933 23.0442 109.324 23.493 108.756C23.9585 108.187 24.4489 107.692 24.9642 107.27C25.4961 106.848 26.0363 106.515 26.5849 106.271C27.15 106.028 27.7069 105.906 28.2555 105.906C29.0201 106.004 29.7349 106.466 30.3998 107.294ZM28.6793 108.098C28.2305 108.163 27.7651 108.342 27.283 108.634C26.801 108.926 26.3438 109.316 25.9117 109.803C25.4961 110.29 25.1138 110.858 24.7647 111.508C24.4156 112.157 24.1413 112.855 23.9419 113.602C25.2717 112.953 26.3771 112.157 27.2581 111.215C28.1391 110.257 28.6128 109.218 28.6793 108.098Z" fill="#4981C2"/>
<path d="M29.734 125.438C29.5013 125.373 29.3683 125.13 29.335 124.708C29.2685 124.496 29.2187 124.245 29.1854 123.953C29.1688 123.66 29.1605 123.327 29.1605 122.954C29.1605 122.613 29.2187 122.142 29.335 121.541C29.4514 120.957 29.6093 120.291 29.8088 119.544C30.0249 118.798 30.2825 117.994 30.5817 117.133C30.8809 116.257 31.2134 115.372 31.5791 114.479C32.0279 113.359 32.4185 112.392 32.751 111.581C33.0835 110.753 33.3577 110.038 33.5738 109.437C33.8065 108.837 33.9894 108.342 34.1224 107.952C34.272 107.562 34.3883 107.229 34.4715 106.953C34.5379 106.759 34.6377 106.523 34.7707 106.247C34.9036 105.971 35.0532 105.695 35.2195 105.419C35.4023 105.127 35.5852 104.859 35.768 104.615C35.9509 104.356 36.1171 104.161 36.2667 104.031C36.8485 104.112 37.3971 104.258 37.9124 104.469C38.4277 104.68 38.7435 104.883 38.8599 105.078C38.6271 105.289 38.3612 105.622 38.062 106.077C37.7628 106.515 37.4719 107.002 37.1893 107.538C36.9067 108.057 36.649 108.593 36.4163 109.145C36.1836 109.697 36.0091 110.184 35.8927 110.606C36.0589 110.33 36.275 110.03 36.541 109.705C36.8069 109.381 37.2142 108.934 37.7628 108.366C38.3778 107.749 38.9513 107.278 39.4832 106.953C40.0318 106.612 40.5055 106.442 40.9045 106.442C41.5361 106.442 42.0514 106.612 42.4504 106.953C42.8659 107.294 43.0737 107.733 43.0737 108.268C43.0737 109.437 42.8742 110.598 42.4753 111.751C42.0764 112.888 41.5029 113.919 40.7548 114.844C40.4723 115.201 40.1398 115.542 39.7575 115.867C39.3752 116.192 38.9762 116.484 38.5606 116.744C38.1451 116.987 37.7378 117.182 37.3389 117.328C36.9399 117.474 36.5825 117.547 36.2667 117.547C35.9675 117.547 35.7015 117.491 35.4688 117.377C35.2527 117.247 35.1031 117.093 35.02 116.914C35.6683 116.541 36.3 116.021 36.915 115.356C37.53 114.69 38.0952 113.927 38.6105 113.066C39.1424 112.19 39.5996 111.248 39.9819 110.241C40.3808 109.235 40.68 108.212 40.8795 107.173C40.2479 107.497 39.6744 107.854 39.1591 108.244C38.6604 108.618 38.1617 109.113 37.663 109.73C37.0646 110.444 36.5909 111.021 36.2418 111.459C35.8927 111.897 35.6018 112.271 35.3691 112.579C35.153 112.888 34.9701 113.18 34.8205 113.456C34.6875 113.716 34.5379 114.04 34.3717 114.43C34.139 114.95 33.8647 115.64 33.5489 116.5C33.2497 117.344 32.9338 118.294 32.6014 119.35C32.2856 120.405 31.9614 121.525 31.629 122.71C31.3131 123.912 31.0056 125.105 30.7064 126.291C30.5236 126.258 30.3656 126.128 30.2327 125.901C30.0997 125.755 29.9999 125.649 29.9334 125.584C29.8836 125.519 29.8171 125.471 29.734 125.438Z" fill="#4981C2"/>
<path d="M46.9147 118.229C45.9672 118.132 45.2109 117.726 44.6457 117.012C44.0806 116.297 43.798 115.388 43.798 114.284C43.798 113.635 43.8977 112.961 44.0972 112.263C44.2967 111.564 44.5792 110.891 44.9449 110.241C45.3106 109.575 45.7428 108.95 46.2415 108.366C46.7402 107.781 47.2804 107.278 47.8622 106.856C48.7765 106.19 49.6326 105.857 50.4305 105.857C50.9624 106.133 51.486 106.71 52.0013 107.587C52.0844 107.587 52.1592 107.587 52.2257 107.587C52.2922 107.57 52.367 107.562 52.4501 107.562C53.3311 107.562 53.7716 108.325 53.7716 109.852C53.7716 110.874 53.5971 111.849 53.248 112.774C52.9156 113.683 52.4418 114.511 51.8268 115.258C51.2283 116.005 50.5053 116.638 49.6575 117.158C48.8264 117.661 47.9121 118.018 46.9147 118.229ZM48.1864 110.558C47.9038 110.931 47.6378 111.337 47.3885 111.775C47.1392 112.214 46.9231 112.66 46.7402 113.115C46.5574 113.553 46.4161 113.984 46.3163 114.406C46.2166 114.812 46.1667 115.177 46.1667 115.502C46.1667 115.891 46.2332 116.265 46.3662 116.622C46.4992 116.979 46.6488 117.182 46.815 117.231C47.563 117.068 48.2446 116.768 48.8596 116.33C49.4913 115.875 50.0315 115.315 50.4803 114.649C50.9458 113.984 51.3031 113.229 51.5525 112.384C51.8185 111.54 51.9514 110.639 51.9514 109.681C51.9514 109.259 51.9265 108.926 51.8766 108.683C51.8268 108.439 51.7436 108.228 51.6273 108.049C50.8959 108.26 50.2393 108.601 49.6575 109.072C49.0923 109.543 48.6019 110.038 48.1864 110.558Z" fill="#4981C2"/>
<path d="M0.374626 22.9069C4.02395 1.8097 32.8015 -9.97842 51.7259 11.0682C71.2759 -7.70175 99.3757 5.80653 98.4373 26.8531C95.3093 7.67847 71.2237 -0.719943 56.5221 15.8239C48.5979 24.5765 55.1667 24.6271 45.9912 15.6215C23.1047 -7.09463 -26.2133 28.4721 50.9439 78.8626C57.8776 75.4728 65.8019 70.6665 72.2143 66.5179C66.5839 71.9819 58.034 78.1543 50.4747 83.0112C47.0339 80.9369 -4.89084 53.3132 0.374626 22.9069Z" fill="url(#paint0_linear)"/>
<path fill-rule="evenodd" clip-rule="evenodd" d="M91.4026 89.2676C91.2619 89.678 91.1916 90.1568 91.0509 90.5673C90.6289 92.4142 90.1365 94.2612 89.7145 96.1081C89.6442 96.3817 89.6442 96.587 89.7848 96.8606C90.0662 97.6815 90.3475 98.5023 90.6289 99.3232C91.1916 101.102 91.2619 102.949 90.9806 104.796C90.7696 106.232 90.4882 107.6 90.4179 109.037C90.3475 110.063 90.2772 111.089 90.1365 112.183C90.1365 112.389 90.0662 112.594 90.2772 112.799C90.4179 113.004 90.4179 113.278 90.3475 113.552C90.2772 113.688 90.2772 113.757 90.2069 113.894C90.3476 114.099 90.4882 114.304 90.5586 114.578C90.6992 114.92 90.9103 115.193 91.262 115.467C91.8247 115.809 92.106 116.356 92.0357 117.04C91.9653 117.588 91.8246 118.066 91.5433 118.477C91.1916 119.024 90.6992 119.503 90.1365 119.913C89.9255 120.05 89.8552 120.187 89.8552 120.461C89.7848 121.213 89.7848 121.965 89.7145 122.718C89.6442 123.334 89.5738 124.018 89.3628 124.633C89.2221 125.044 89.0111 125.523 88.8001 125.865C88.3781 126.412 87.745 126.412 87.323 125.933C87.1823 125.728 86.9713 125.523 86.901 125.249C86.6899 124.565 86.4086 123.949 86.2679 123.265C86.1272 122.718 86.1272 122.171 86.4789 121.623C86.5493 121.555 86.5493 121.35 86.5493 121.213C86.4086 120.392 86.4789 119.503 86.4789 118.614C86.5493 117.519 86.6196 116.425 86.69 115.33C86.69 115.125 86.6899 114.92 86.5493 114.714C86.3383 114.441 86.2679 114.099 86.3383 113.757C86.3383 113.62 86.3383 113.483 86.3383 113.346C86.2679 113.415 86.1976 113.483 86.1976 113.552C85.8459 114.509 85.5645 115.399 85.2129 116.356C85.1425 116.493 85.2129 116.698 85.2129 116.835C85.2832 117.245 85.2129 117.656 84.9315 117.998C84.7908 118.135 84.7205 118.34 84.7205 118.545C84.7205 118.819 84.7205 119.024 84.7205 119.298C84.7205 120.118 84.7205 120.871 84.5095 121.692C84.5095 121.76 84.5095 121.897 84.5095 121.965C84.6501 122.444 84.6501 122.923 84.5095 123.402C84.3688 124.291 84.0874 125.112 83.5951 125.865C82.8917 127.027 81.6959 126.891 81.1332 125.659C80.8519 125.044 80.6408 124.291 80.5002 123.607C80.3595 122.992 80.4298 122.376 80.9222 121.965C80.9222 121.418 80.9222 120.871 80.9222 120.392C80.9222 119.913 81.0629 119.503 81.1332 119.024C81.2036 118.819 81.2036 118.614 81.0629 118.477C80.7815 117.998 80.7815 117.519 80.9925 117.04C81.2036 116.63 81.4146 116.288 81.6959 115.946C82.118 115.399 82.3993 114.783 82.54 114.099C82.6807 113.688 82.751 113.278 82.962 112.936C83.1027 112.662 83.173 112.457 83.173 112.183C83.173 111.978 83.173 111.773 83.173 111.568C83.173 109.858 83.1027 108.148 83.1027 106.437C83.1027 105.274 83.173 104.043 83.4544 102.88C83.7357 101.854 83.9468 100.897 84.2281 99.8704C84.3688 99.3916 84.3688 98.9812 84.2281 98.5023C84.1578 98.2971 84.1578 98.0235 84.0874 97.8183C83.9468 96.9974 83.8764 96.1081 83.7357 95.2873C83.4544 93.7139 82.962 92.2774 82.3993 90.7725C81.6959 91.0461 80.9925 91.0461 80.2892 91.0461C79.4451 90.9777 78.8121 90.6357 78.5307 89.678C78.5307 89.6096 78.4604 89.4728 78.39 89.336C78.179 89.4044 77.968 89.4728 77.757 89.4728C77.4756 89.5412 77.1239 89.5412 76.8426 89.5412C76.4909 89.5412 76.2095 89.336 76.0689 88.9255C76.0689 88.8571 75.9985 88.7887 75.9282 88.6519C75.1545 88.8571 74.4511 88.7887 73.6774 88.6519C73.6774 88.7203 73.607 88.7887 73.607 88.8571C73.4663 89.678 73.185 90.4305 72.8333 91.1145C72.4816 91.7302 72.2003 92.3458 71.9189 92.9615C71.5672 93.7139 71.3562 94.5348 71.3562 95.3557C71.3562 96.0397 71.2155 96.7238 70.9342 97.3394C70.7231 97.8867 70.5121 98.4339 70.3715 98.9812C70.2308 99.3916 70.1604 99.8704 70.0901 100.281C70.0198 100.691 70.0198 101.17 69.9494 101.581C69.8791 101.923 69.9494 102.265 70.0198 102.675C70.1604 103.222 70.2308 103.838 70.3011 104.385C70.4418 105.753 70.3715 107.19 70.3715 108.558C70.2308 111.499 70.3715 114.372 70.7935 117.314C70.8638 117.656 70.9342 117.93 71.1452 118.203C71.3562 118.408 71.4969 118.682 71.7079 118.956C72.2706 119.708 72.2003 120.871 71.4969 121.623C71.3562 121.76 71.2155 121.965 71.0045 122.102C70.7935 122.239 70.7935 122.376 70.7935 122.65C70.7935 123.402 70.8638 124.086 70.8638 124.839C70.8638 125.523 70.5825 126.001 70.0198 126.343C69.035 126.891 67.98 127.096 66.8545 126.959C66.0808 126.891 65.6588 126.138 65.8698 125.386C65.9401 125.181 65.8698 125.044 65.7995 124.839C65.6588 124.36 65.4478 123.881 65.3071 123.402C65.1664 122.65 65.0258 121.897 64.8851 121.213C64.7444 120.529 64.6741 120.529 64.041 120.324C63.4783 120.118 62.9156 119.845 62.5639 119.298C62.2825 118.956 62.1419 118.545 62.2122 118.066C62.2825 117.519 62.4936 117.04 62.8452 116.698C63.1969 116.288 63.619 116.014 64.1114 115.809C64.1114 115.672 64.1817 115.604 64.1817 115.467C64.3224 113.688 64.252 111.841 64.1817 110.063C64.1817 109.858 64.1114 109.584 64.1114 109.379C63.9003 108.216 63.6893 106.985 63.5486 105.822C63.3376 104.454 63.408 103.086 63.9707 101.717C64.1113 101.444 64.1817 101.102 64.252 100.828C64.3224 100.691 64.3224 100.486 64.3224 100.281C64.1817 99.118 64.1113 97.9551 63.9003 96.7922C63.7596 95.4925 63.4783 94.1928 63.0563 92.9615C62.7749 92.1406 62.5639 91.3197 62.3529 90.4989C61.8605 88.5151 61.4385 86.5313 61.0165 84.4792C60.6648 82.5638 60.1021 80.7169 59.6097 78.8699C59.3283 77.8438 59.258 76.8861 59.469 75.86C59.68 74.5603 60.1724 73.3974 60.7351 72.303C60.8758 72.0293 61.0165 71.6873 61.1571 71.3453C60.5944 70.8664 60.6648 70.3192 60.8054 69.7035C60.9461 69.2247 61.0165 68.7459 61.0165 68.267C61.0165 67.3093 61.0165 66.4201 61.0165 65.4624C60.9461 64.1627 60.8054 62.9314 60.3834 61.7001C60.2427 61.2896 60.1021 60.8792 60.0317 60.4004C59.68 59.1691 59.3987 58.0062 59.047 56.7749C58.9063 56.296 58.7656 55.6804 58.4843 55.27C57.9919 54.5859 57.7809 53.8334 57.5699 53.081C57.4292 52.4653 57.2182 51.9181 57.0072 51.3708C56.7962 50.8236 56.5851 50.2763 56.3741 49.7291C56.0928 48.8398 55.8114 47.9505 55.8114 46.9245C55.8114 46.4456 55.7411 46.1036 55.5301 45.6931C55.108 44.9407 54.897 44.0514 54.8267 43.1621C54.8267 42.7517 54.686 42.4097 54.5453 41.9992C53.9826 40.6311 53.7716 39.1946 53.7716 37.7581C53.7716 36.9372 53.9123 36.1848 54.7563 35.8427C54.686 35.0903 54.686 34.4062 55.3894 33.9274C55.3894 33.6538 55.3894 33.3117 55.3894 33.0381C55.4597 32.2856 55.6004 31.5332 55.6707 30.7807C55.8114 29.5494 56.0224 28.2497 56.1631 27.0184C56.2334 26.3343 56.4445 25.7187 56.8665 25.2399C57.2182 24.761 57.6402 24.3506 58.0622 23.9401C58.4843 23.5297 58.9766 23.1877 59.3987 22.7088C59.891 22.23 60.5241 21.8196 61.1571 21.6828C62.0715 21.4091 63.0563 21.2039 64.041 20.9303C64.1113 20.9303 64.252 20.9303 64.3224 20.9303C64.463 20.9303 64.674 20.9987 64.674 21.2039C64.7444 21.4091 64.6741 21.546 64.5334 21.6828C64.3927 21.7512 64.3224 21.8196 64.1114 21.9564C64.3224 22.0248 64.3927 22.0932 64.5334 22.1616C64.7444 22.23 64.8851 22.2984 65.0961 22.3668C65.2368 22.4352 65.3774 22.572 65.3774 22.7772C65.3774 22.9141 65.2368 22.9825 65.0961 23.1193C65.0257 23.1877 64.8851 23.1877 64.8851 23.3245C64.6741 23.6665 64.3927 23.6665 64.1114 23.6665C63.9707 23.6665 63.83 23.6665 63.7597 23.5981C63.5486 23.8033 63.408 24.0086 63.1969 24.2138C63.1969 24.2138 63.1969 24.2822 63.2673 24.3506C63.3376 24.6926 63.2673 24.9662 62.9156 25.103C62.7749 25.1715 62.6342 25.1714 62.5639 25.1714C61.9309 25.103 61.3682 25.3767 60.8758 25.7871C60.1724 26.3343 59.3987 26.6764 58.5546 26.8132C58.625 27.292 58.625 27.7025 58.6953 28.1813C58.836 29.6178 58.9063 31.0543 59.047 32.4909C59.1173 33.3117 59.258 34.1326 59.047 35.0219C59.8207 35.6375 59.469 36.39 59.1877 37.1424C59.6097 37.6213 59.8207 38.1685 59.9614 38.7842C60.2427 39.6735 60.5241 40.4943 60.8054 41.3152C60.9461 41.6572 61.0165 42.0676 61.0165 42.4097C61.0165 43.0253 61.2275 43.5726 61.5088 44.1198C61.6495 44.3934 61.8605 44.7355 61.9309 45.0775C62.0715 45.8984 62.4936 46.5824 62.8452 47.2665C62.9156 47.3349 62.9859 47.4033 63.0563 47.5401C63.2673 47.2665 63.408 46.9929 63.5486 46.7876C63.83 46.3772 64.1817 46.0352 64.674 46.0352C64.7444 45.7616 64.8147 45.5563 64.8851 45.3511C64.463 45.0775 64.1817 44.6671 63.9003 44.2566C63.1969 42.8201 62.7046 41.3152 62.6342 39.6734C62.6342 39.1262 62.6342 38.5106 62.9156 38.0317C62.9859 37.8949 62.9859 37.7581 62.9859 37.6213C62.9156 36.8004 63.2673 36.1848 63.83 35.7743C64.1114 35.5691 64.463 35.3639 64.8147 35.1587C65.3774 34.7482 66.0105 34.6114 66.7139 34.543C67.2062 34.543 67.6986 34.4746 68.191 34.4746C68.6833 34.4062 69.246 34.3378 69.7384 34.3378C70.9342 34.4062 71.6375 35.3639 71.4265 36.6636C71.6375 36.9372 71.7782 37.2108 71.9189 37.4845C72.2003 37.9633 72.4113 38.4422 72.6926 38.921C72.8333 39.1946 72.9036 39.4682 72.8333 39.7419C72.8333 39.9471 72.9036 40.1523 73.0443 40.2891C73.3257 40.6311 73.607 40.9048 73.8884 41.2468C74.1697 41.5888 74.1697 41.8624 73.8884 42.1361C73.7477 42.2729 73.607 42.4097 73.396 42.5465C73.607 42.8201 73.5367 43.0937 73.3257 43.3674C73.607 43.8462 73.607 43.983 73.2553 44.4618C73.3257 44.5987 73.396 44.7355 73.396 44.8723C73.607 45.4879 73.4663 45.8984 72.9036 46.172C72.4816 46.3772 71.9892 46.4456 71.4969 46.4456C71.2859 46.4456 71.0748 46.4456 70.9342 46.4456C70.7935 46.7192 70.7231 46.9929 70.5825 47.3349C71.0748 47.5401 71.3562 47.8821 71.5672 48.361C71.7079 48.6346 71.7782 48.9082 71.8486 49.1134C71.9189 49.3186 72.0596 49.5239 72.2003 49.6607C72.6223 50.0711 72.974 50.4815 72.974 51.1656C73.185 51.1656 73.396 51.234 73.5367 51.234C73.9587 51.234 74.3807 51.3708 74.8028 51.5076C75.1545 51.6444 75.4358 51.9181 75.5765 52.3285C75.5765 52.3969 75.6468 52.5337 75.7172 52.6021C76.2095 52.9442 76.7019 53.2862 77.1943 53.6282C77.8977 53.2862 78.5307 53.0126 79.2341 52.6705C79.9375 52.3969 80.6409 52.1233 81.4146 52.2601C82.118 51.4392 82.8917 51.5076 83.5951 52.3285C83.6654 52.3969 83.6654 52.3969 83.7357 52.4653C84.1578 52.2601 84.5095 51.9865 85.0018 51.7128C84.9315 51.1656 84.8612 50.6184 84.7908 50.0711C84.6501 50.0027 84.5095 50.0027 84.3688 49.9343C83.8764 49.7975 83.3137 49.7291 82.8213 49.5923C82.54 49.5239 82.2586 49.3871 81.9773 49.1818C81.6959 49.045 81.6256 48.7714 81.6256 48.4294C81.6256 48.1558 81.6959 47.9505 81.7663 47.6769C81.4849 47.1981 81.4849 47.1981 81.7663 46.5824C81.5553 46.3088 81.5553 46.0352 81.6959 45.6931C81.6959 45.6247 81.6256 45.6247 81.6256 45.6247C81.1332 45.0775 81.2036 44.7355 81.7663 44.325C81.9773 44.1882 82.1883 43.983 82.3993 43.8462C82.54 43.7094 82.6103 43.5726 82.6807 43.3674C82.6807 43.0253 82.751 42.6833 82.8917 42.4097C83.2434 41.6572 83.5951 41.0416 84.2281 40.4943C84.3688 40.4259 84.4391 40.2891 84.4391 40.1523C84.4391 39.8103 84.6501 39.5366 84.9315 39.3998C85.1425 39.263 85.4239 39.1946 85.7052 39.0578C85.9866 38.9894 86.2679 38.921 86.5493 38.7842C86.4086 38.579 86.3383 38.4421 86.1976 38.3053C86.1976 38.3053 86.1976 38.2369 86.2679 38.2369C86.4789 38.3053 86.6196 38.3053 86.8306 38.3737C86.9713 38.1685 86.8306 37.8949 87.112 37.7581C87.1823 37.9633 87.2527 38.2369 87.2527 38.4422C87.534 38.1685 87.6747 37.8265 88.0967 37.8265C87.956 38.1001 87.8154 38.3053 87.745 38.579C87.9561 38.6474 88.1671 38.7158 88.3077 38.7158C88.5187 38.7158 88.6594 38.5106 88.8001 38.4422C88.8704 38.3737 88.9408 38.3737 89.0111 38.3737C89.7848 38.1001 90.5586 38.4422 91.0509 39.263C91.1213 39.3998 91.1213 39.5366 91.3323 39.5366C91.8246 39.605 92.0357 39.9471 92.2467 40.3575C92.3874 40.6995 92.528 41.0416 92.739 41.3152C92.8094 41.5204 92.8797 41.6572 92.9501 41.8624C93.0907 42.5465 93.0204 42.8885 92.4577 43.2989C92.4577 43.2989 92.4577 43.3674 92.3873 43.3674C92.5984 45.2827 91.9653 46.7192 90.4882 47.7453C90.6289 48.0873 90.6992 48.4978 90.8399 48.9082C90.6992 48.8398 90.6289 48.7714 90.5586 48.7714C90.4882 48.9766 90.4882 49.1818 90.4179 49.3871H90.3475C90.3475 49.2502 90.2772 49.1818 90.2772 49.045C90.2069 49.1134 90.1365 49.1818 90.0662 49.1818C89.9958 49.2502 89.9958 49.3187 89.9255 49.3871C90.1365 50.0711 90.4179 50.7552 90.9806 51.3024C91.1916 50.6184 91.684 50.1395 92.0357 49.5923C92.5984 48.7714 93.0907 47.9505 93.3018 46.9929C93.5128 46.172 93.7238 45.3511 93.9348 44.5303C94.2865 43.0253 94.7789 41.5888 95.3416 40.1523C95.4119 40.0155 95.4823 39.8103 95.4823 39.6734C95.4823 39.1262 95.4822 38.579 95.5526 38.0317C95.6229 36.2532 95.6933 34.4062 95.7636 32.6277C95.7636 31.8752 95.8339 31.1227 95.8339 30.3019C95.8339 29.9598 95.8339 29.6178 95.6933 29.2758C95.0602 29.4126 94.4975 29.4126 93.9348 29.139C93.3721 28.7969 92.8094 28.6601 92.1763 28.6601C91.9653 28.6601 91.7543 28.5917 91.5433 28.4549C91.2619 28.2497 91.262 27.9077 91.6136 27.7025C91.7543 27.634 91.895 27.5656 92.0357 27.5656C92.317 27.5656 92.5984 27.6341 92.9501 27.6341C93.0204 27.6341 93.1611 27.6341 93.3018 27.6341C93.2314 27.4972 93.1611 27.292 93.0907 27.292C92.528 27.0184 91.895 26.8132 91.262 27.0868C90.9103 27.2236 90.5586 27.3604 90.2069 27.4288C89.9959 27.4972 89.7848 27.4288 89.6442 27.4288C89.5035 27.3604 89.4331 27.2236 89.3628 27.0868C89.3628 27.0184 89.5035 26.8816 89.5738 26.8132L89.6442 26.7448C89.6442 26.2659 89.7145 26.1975 90.1365 26.1291C90.3475 26.1291 90.5586 26.0607 90.8399 26.0607C90.7696 25.7871 90.8399 25.5819 91.0509 25.5135C90.7696 25.2399 90.4179 25.0346 90.1365 24.761C89.9959 24.6242 89.8552 24.419 89.9958 24.2138C90.1365 24.0086 90.3475 24.077 90.4882 24.1454C90.7696 24.2822 90.9806 24.419 91.262 24.5558C91.895 24.761 92.3874 25.103 92.8797 25.5819C93.0204 25.7187 93.2314 25.8555 93.4424 25.7871C93.7941 25.7871 94.0755 25.8555 94.3568 26.0607C94.7085 26.2659 95.0602 26.4028 95.4119 26.608C95.8339 26.8816 96.256 27.0868 96.6076 27.3604C97.311 27.7709 97.6627 28.4549 97.8034 29.2758C97.8737 29.6862 97.8738 30.0967 97.9441 30.5755C98.0144 31.6016 98.0848 32.5593 98.2254 33.5853C98.3661 35.0903 98.5771 36.5268 98.4364 38.0317C98.3661 38.5106 98.3661 38.9894 98.2958 39.4682C98.1551 40.8364 98.0144 42.2045 97.8034 43.5042C97.3814 45.83 96.9594 48.2242 96.467 50.55C96.1153 52.1233 95.7636 53.6282 94.9899 54.9963C94.9195 55.2015 94.9195 55.3384 94.9195 55.5436C94.9899 56.0224 95.0602 56.5012 94.7085 56.7749C94.4272 57.1169 94.2865 57.3905 94.3568 57.8009C94.3568 57.9378 94.3568 58.143 94.2865 58.2798C94.1458 58.827 94.0051 59.3743 93.7941 59.9215C93.3721 61.0844 93.0204 62.2473 92.739 63.4786C92.6687 63.6838 92.5984 63.8207 92.8094 64.0259C93.2314 64.4363 93.3017 64.9151 93.0907 65.4624C92.9501 65.8044 92.9501 66.1464 93.1611 66.4201C93.3721 66.8305 93.3721 67.2409 93.1611 67.6514C93.0907 67.7198 93.0907 67.8566 93.0907 67.925C93.3017 68.4038 93.0907 68.8143 92.8094 69.2247C92.5984 69.6351 92.5984 69.7035 92.9501 69.9772C94.2865 70.8664 95.4823 71.8925 96.5373 73.1238C97.9441 74.7655 99.2805 76.4073 100.617 78.049C101.953 79.6224 103.219 81.2641 104.767 82.5638C105.048 82.769 105.048 83.0426 104.908 83.3847C104.697 83.9319 104.345 84.2739 103.853 84.4792C103.641 84.616 103.501 84.6844 103.29 84.8212C103.36 85.0948 103.501 85.3 103.501 85.5052C103.641 86.0525 103.571 86.3945 103.149 86.7366C102.868 86.9418 102.516 87.0786 102.164 87.2154C101.883 87.3522 101.531 87.3522 101.25 87.489C101.461 88.1047 101.109 88.4467 100.687 88.7887C100.265 89.0623 99.8432 89.4044 99.4212 89.678C99.2102 89.8148 98.9288 90.02 98.7178 90.0884C98.2958 90.2936 97.8034 90.2936 97.4517 89.9516C97.311 89.8148 97.1704 89.678 97.0297 89.6096C96.6076 89.7464 96.256 89.9516 95.9043 90.0884C95.4119 90.2252 95.0602 90.1568 94.7085 89.7464C94.4975 89.4728 94.2865 89.1992 94.1458 88.9939C93.6534 89.1992 93.2314 89.4728 92.739 89.6096C92.2467 89.7464 91.7543 89.4044 91.262 89.2676C91.473 88.9939 91.4026 89.1307 91.4026 89.2676ZM74.4511 71.4137C75.4358 71.0032 76.2095 70.3876 76.9129 69.6351C77.6866 68.9511 78.5307 68.5406 79.5154 68.5406C79.7968 68.1302 80.0782 67.7198 80.3595 67.2409C79.3044 66.6253 78.3197 65.9412 77.4053 65.052C76.4909 64.1627 75.6468 63.2734 74.6621 62.3157C74.3104 65.4624 74.5214 68.4038 74.4511 71.4137Z" fill="url(#paint1_linear)"/>
<path d="M35.7584 30.405L33.2292 30.8937C31.2926 35.0956 30.6332 40.7819 31.5199 44.3191C33.7257 53.2513 44.2021 55.9761 43.9978 55.8669C39.0144 53.4921 36.4679 50.0554 35.6903 48.9334C33.0783 45.073 33.6575 41.0221 34.2524 39.0786C34.6209 37.8988 35.1086 36.7471 35.532 35.6006C35.9368 34.5315 36.6379 32.7559 37.1034 31.7827L35.7584 30.405Z" fill="#4981C2"/>
<path d="M41.5211 36.1775C38.8913 37.2203 36.2927 41.0987 36.6588 43.7669C37.0401 46.4592 36.4688 42.9845 38.831 39.9115C39.7469 38.7328 40.8701 37.8282 41.8317 36.7218C42.0811 36.4729 41.7975 36.0784 41.5211 36.1775Z" fill="#4981C2"/>
<path d="M30.7001 48.871C31.3438 48.552 28.687 48.9504 26.6115 47.1144C25.7947 46.4117 25.153 45.5049 24.2194 44.9383C23.9997 44.805 23.6807 44.9959 23.7042 45.2466C23.7605 46.4044 24.8999 47.5098 25.864 48.1244C27.188 48.9869 30.0564 49.19 30.7001 48.871Z" fill="#4981C2"/>
<path d="M26.0637 32.8779C25.0743 32.8089 25.1622 34.4426 25.097 35.4074C25.0401 36.5987 25.3008 38.5587 25.5402 39.7379C26.2785 43.6273 30.0533 45.269 29.7581 45.0159C28.2818 43.7505 27.2347 41.4016 26.9355 39.1671C26.793 38.1944 26.8277 37.1817 26.8532 36.2076C26.8996 35.3201 27.0531 32.9468 26.0637 32.8779Z" fill="#4981C2"/>
<path d="M39.3832 18.2819L40.3178 23.2892L45.0655 25.3854L40.492 27.7906L39.9258 32.8345L36.1335 29.3051L31.0544 30.3231L33.3123 25.758L30.7061 21.3202L35.8699 22.0408L39.3832 18.2819Z" fill="#4981C2"/>
<path d="M25.6233 26.0167L26.7515 27.9594L29.0142 28.1629L27.4667 29.7847L27.9937 31.9547L25.9087 31.0152L23.9529 32.1524L24.2133 29.9421L22.5072 28.4777L24.7358 28.0389L25.6233 26.0167Z" fill="#4981C2"/>
<path d="M18.6503 39.7378L20.17 40.3195L21.4847 39.4003L21.4382 40.9854L22.7206 41.9411L21.166 42.3743L20.6574 43.8714L19.7412 42.531L18.1058 42.5156L19.1185 41.28L18.6503 39.7378Z" fill="#4981C2"/>
<path d="M41.6585 34.7788L43.0797 34.0278L43.2548 32.432L44.4354 33.5479L46.0263 33.2255L45.3282 34.6373L46.1311 36.0124L44.5424 35.8033L43.4594 36.9815L43.1443 35.4139L41.6585 34.7788Z" fill="#4981C2"/>
<defs>
<linearGradient id="paint0_linear" x1="81.7808" y1="70.6524" x2="-5.09398" y2="45.1161" gradientUnits="userSpaceOnUse">
<stop stop-color="#E991BA"/>
<stop offset="0.338542" stop-color="#F58CB4"/>
<stop offset="0.796875" stop-color="#4982C2"/>
</linearGradient>
<linearGradient id="paint1_linear" x1="95.0086" y1="54.8088" x2="54.2306" y2="57.8796" gradientUnits="userSpaceOnUse">
<stop offset="0.00344803" stop-color="#E991BA"/>
<stop offset="0.348958" stop-color="#F58CB4"/>
<stop offset="0.567708" stop-color="#4982C2"/>
</linearGradient>
</defs>
</svg>
